<?xml version="1.0" encoding="UTF-8"?>
<svg id="Layer_1" xmlns="http://www.w3.org/2000/svg" version="1.1" viewBox="0 0 500 500">
  <!-- Generator: Adobe Illustrator 29.6.1, SVG Export Plug-In . SVG Version: 2.1.1 Build 9)  -->
  <defs>
    <style>
      .st0 {
        fill: #f9fefe;
      }

      .st1 {
        fill: #d5b468;
      }

      .st2 {
        display: none;
      }

      .st3 {
        fill: #f8fefe;
      }
    </style>
  </defs>
  <g id="room" class="st2">
    <path class="st0" d="M375.3,187.3v-41.8c0-7.2-14.3-21.3-22.4-20.4h-223.5c-12.1,1-22,11-23,23.1-2,22.4,1.6,47.4-.2,70.1-11,20.1-20.4,41.3-29.2,62.4,1.9,27-2.7,57.7,0,84.3.4,4.4,3.1,7.5,7.2,8.8,4.4,1.4,24.7,1.5,28.9-.1,2.9-1.1,6.7-5.6,6.7-8.7v-13.7h243.6v14.4c0,.2,1.5,4,1.7,4.3.8,1.5,3,2.9,4.5,3.5,4.2,1.8,21.2,1.8,26.2,1.2s7.3-2.3,8.9-5.1c3.2-5.5.3-30.5,1.5-31.7,8.5-.9,15.1-7.9,17-16.1-.4-18.8,1.7-39.3.4-57.9-.5-6.7-2.4-12-8.1-16-9.5-6.6-22.3-.5-32.6-4.2-9.3-3.4-7-26.2,3.4-20.8s2.1,11.3,7.4,13.3,18.1,1.1,21.5.6,6.4-3.4,7-7.1c2.9-20.5-12.9-42.4-34.4-42.4h-12.4Z"/>
    <path d="M375.3,187.3h12.4c21.5,0,37.3,21.9,34.4,42.4s-3.2,6.6-7,7.1-18.8.4-21.5-.6c-5.3-2-2.5-10.8-7.4-13.3-10.4-5.4-12.7,17.4-3.4,20.8,10.2,3.7,23.1-2.4,32.6,4.2,5.7,4,7.6,9.2,8.1,16,1.3,18.6-.8,39.1-.4,57.9-1.9,8.1-8.5,15.1-17,16.1-1.1,1.1,1.8,26.2-1.5,31.7s-5.7,4.8-8.9,5.1c-5,.6-22,.5-26.2-1.2-1.5-.6-3.7-2.1-4.5-3.5s-1.7-4.1-1.7-4.3v-14.4H119.7v13.7c0,3.1-3.8,7.6-6.7,8.7-4.2,1.7-24.5,1.6-28.9.1-4.2-1.4-6.8-4.4-7.2-8.8-2.6-26.5,1.9-57.3,0-84.3,8.9-21.1,18.2-42.3,29.2-62.4,1.7-22.7-1.9-47.7.2-70.1,1.1-12.1,11-22,23-23.1h223.5c8.1-.8,22.4,13.2,22.4,20.4v41.8ZM117.7,148.8v61.2c4.6-1.6,10.3-3.6,15.1-4,10.6-.8,25.5.4,36.9.2s8.9,1.4,8.9-.6v-19.4c0-9,15.1-23.7,24.7-24.1,24.2.8,50.7-2.1,74.7-.3,10.9.8,27.1,13.6,27.1,25.1v19.1h42.8c.1,0,.2-1.5.8-2.2,3.8-5.6,9-10.3,15.3-12.9v-43.4c-1.6-7.2-7.8-12-15.1-11.8h-217.5c-7.1,0-12.8,6.3-13.7,13.1ZM294.4,206v-17.1c0-5.9-9.2-14.8-15.2-15.6-23.4,1-48.9-1.9-72.1-.2-7.3.5-17.7,8-17.7,15.8v17.1h105.1ZM411.5,225.4c-1.1-3.7-.4-6.8-1.7-10.7-7.9-24.5-53.1-22.8-55.8,7.7-2.7,30.5,2,64.8,0,95.7,0,4.6,3.3,7.8,7.7,8.3,10.1,1.2,31,.8,41.5,0s7.9-2.1,8.9-7.1l-.3-57.8c-2.5-9.4-20.6-5.2-28.1-6-24.4-2.7-24.1-45.9,1.3-44.2s14.7,6.8,15.1,14.1h11.4ZM343.2,217.4h-213.1c-1,0-7.5,2.5-8.8,3.2-6.5,3.4-9,9.1-12.2,15.3s-7.2,15.9-10.8,23.7h244.2l.7-42.2ZM342.5,270.9H100c-1.3,0-6.9,3.5-8.1,4.7s-4.3,7.2-4.3,9.1v22.4h255v-36.1ZM342.5,317.8H87.6v45.5h20.7v-20.4c0-.2,2.3-2.3,2.8-2.5,86.5-.8,173.4-.8,260,0,.6.2,2.8,2.3,2.8,2.5v20.4h20.7v-25.4h-35.8c-.9,0-5.1-1.9-6.1-2.5-6.1-3.5-9.8-10.5-10.2-17.5Z"/>
    <path class="st1" d="M343.2,217.4l-.7,42.2H98.3c3.6-7.8,6.8-16,10.8-23.7s5.7-11.8,12.2-15.3,7.8-3.2,8.8-3.2h213.1Z"/>
    <path class="st1" d="M411.5,225.4h-11.4c-.4-7.2-8.1-13.6-15.1-14.1-25.5-1.7-25.7,41.5-1.3,44.2s25.7-3.4,28.1,6l.3,57.8c-1,5-4.1,6.8-8.9,7.1-10.5.7-31.4,1.1-41.5,0-4.5-.5-7.7-3.8-7.7-8.3,2.1-30.9-2.7-65.2,0-95.7,2.7-30.5,47.9-32.2,55.8-7.7,1.2,3.9.6,7,1.7,10.7ZM379.8,270.4c-25.1,3.7-21.1,44.7,7.7,40.5,24.5-3.6,21.5-44.7-7.7-40.5Z"/>
    <path class="st1" d="M294.4,206h-105.1v-17.1c0-7.7,10.4-15.2,17.7-15.8,23.2-1.7,48.7,1.2,72.1.2,6,.7,15.2,9.7,15.2,15.6v17.1Z"/>
    <path d="M379.8,270.4c29.2-4.3,32.1,36.9,7.7,40.5-28.8,4.2-32.7-36.8-7.7-40.5ZM380.5,281.1c-8.2,1.9-8.6,16.9,0,19.1,16.3,4.2,17.7-23.1,0-19.1Z"/>
  </g>
  <g id="garden" class="st2">
    <path class="st3" d="M207.8,306.7h-82.7c0-7.4.9-15.8,4.3-22.5,4.4-8.8,13.3-16.6,23.3-17.8,5.4-.6,13.7,2.5,14.7-4.5s-16.4-6.3-21.9-4.6-7.6,3.9-11.8,5.1c4.1-15.8,19.7-28.3,36.1-29.1s14.3,3.3,16.5-.7c4.2-7.8-4-9.4-9.9-9.9-10.4-.9-21.7,1.5-30.3,7.4-1.4.9-2.7,3.4-5.1,3.9-.7-1,2.6-8,3.4-9.4,5.6-10.1,15.8-20.1,25.4-24.8s8.3-2.4,12-4.1,1,.5,1.9,0c4.6-2.8,1.6-10.1-3.3-10s-7.2,1.6-8.1,1.8c-13.3,4-20.4,11.1-28.8,21.1-1.1,1.3-3,3.1-4.4,4.2-.9-6.5-2.3-13.4-4.6-19.5-4.1-10.7-12.3-20.4-21-27.3s-10.4-6.5-13.8-1.4,6.2,9.2,10.2,12.3c8.4,6.6,14.9,18.1,17.5,28,1.3,4.9,2.1,10.3,2.4,15.3l-12.3-13.2c-5.4-3.9-9.1-6.2-15.1-8s-.5-1.2-.8-1.2c-.7,0-1.6.8-2.6.6s-.6-1.8-1.4-1.9c-1.6-.2-2.7-.2-4.4-.6-4.7-1.1-4.5-.6-8.9-.3s-4.8-1.6-6,1.9c-3,9.1,6,7.3,11.1,8.2,14.8,2.4,29.2,13.2,35.1,27,.3.8,1.8,5.9,1.8,6.3v11.6c-2.2-1-2.7-3.9-3.7-5.2-7.3-10-19.4-17.1-32.4-15.9-2,.2-5,.8-6.8,1.8s-2.5,4.8-1.8,6.8c1.5,4.6,9.6,1.8,13.3,1.9s6.7,1.2,9.8,3.1.8-.4,1-.2c3.7,2.6,8.6,8.3,10.6,12.8,6.8,15.5.9,23.3-1.1,38.4-.5,4-.6,8.8-.7,12.8h-27.5c-2.2,0-4.9,3.3-5,5.6s3.1,5.6,5,5.6h114.8l-23.7,48.8c-1.5,8.5,8.2,10.5,11.2,2.6l39.7-81.5,2.2-1.1,38.8.4,41.8,83.9c4.5,7,13,1.4,9.7-5.7l-23.7-47.5h115.5c1.8,0,4.8-3,4.9-5s-2.5-6.3-4.9-6.3h-27.5c0-9.9-2.2-19.1-4-28.7-2.9-15,1.2-27.3,14.8-35.5.5-.3.6-1.2,1.3-1.5,1.1-.4,6.8-1.2,8.1-1.2,4.6,0,12.8,3.5,12.2-4.8-.3-4.6-4.5-5.2-8.3-5.6-11.8-1.2-22.4,4.3-30,12.8l-5.3,7.6c-4.6-22.2,16.3-41.1,36.8-44.3s10.5,1.3,10.9-5.1c.5-7.6-9.2-6.2-14.1-5.4-11.1,1.6-24.8,8.8-30.9,18l-6.6,6.3c-.4-4.4,1.1-9.6,2.3-13.9,2.9-10,6.9-18.1,13.5-26.2l14.5-9.7c.7-9.5-6.3-8.5-12.4-4.8s-15.4,13.9-19.4,21c-4.4,7.9-6.8,17.4-7.8,26.3-.9,1-3.8-4-4.4-4.6-5.1-5.8-12.6-12.8-18.6-15.9s-14.6-6.4-19-6-6.3,7.3-2.3,10.2c4.8,1.5,9.9,2.5,14.5,4.7,10.5,5,21.9,17.6,26.6,28.3s1.7,3.6.9,5.1c-1.7-2.2-4.3-2.6-6.6-4.1-9.7-6.2-22.6-10.1-34.6-5.2-1.8.7-3.9-.5-4.7,3.2-2.3,10.5,11.8,5.3,17.4,5.5,14.1.4,29.1,10.9,34.2,24.1.6,1.7,1.4,3.2,1.2,5.1-.4.4-6.1-3.2-7.3-3.6-6.6-2.7-16.1-4.7-22.3-1.7s-1.6.1-2.5.7c-1.4.9-.9,6.3.4,7.6,2,1.9,10.2.7,13.5,1.1,10.6,1.2,21,10.6,24.5,20.5s3.2,13.2,3,19.8h-83.4l-9.3-19.9c2.6,0,5.5-.4,8-1,10.3-2.4,20.4-11.9,21.7-23.3s0-9.7-2-11.4-.8.5-1.1.4-.1-1-.6-1.1c-1.7-.4-9.8.4-10.1,0,.7-1.9-.9-3.3-1.2-4.5s.4-1.7.2-2.4c-4.7-18.6-15.3-29-35.2-30.2-1.9-.1-3.9,1.3-6.2,0v-48c0-5.3,4.7-16.1,8.3-20.2,10.3-11.8,30.5-11.6,36.2,4.2s.6,10.8,6.2,11.7c9.7,1.5,5.8-12.7,3.3-17.9-2.8-5.8-10.6-12.9-15.5-14.9-14.6-6-29.9-.4-39.4,11.7-1.8,2.2-3,5.8-4.3,7.5s-1.5-1.1-2-1.8c-7.1-9-13.2-17.4-25.6-19.6-16.2-2.9-33.5,9.2-36,24.8-1.2,7.7,1.7,13.9,9.5,8.2,1.8-3.7,1.5-8.1,3.4-11.8,4.9-9.8,17.3-12.5,26.9-8.5,13.2,5.5,17,20.8,17.7,33.9.7,13.3-.6,27.3,0,40.7-1.5.2-3.4-.3-4.8,0s-.2,1.2-1.4,1.4c-2.2.3-3.8-.5-5.4-.6s0,1.2-1.2,1.3c-3.9.4-4.2-.8-8.8,1.1-9.6,4.1-16.6,13.2-19.2,23.1-.5,1.9-1.4,9.5-1.8,10.1-1.8,2.6-11.3-2.8-13.6,4.3s1.1,16.6,5.6,22.1,11.8,8,20,10.4,1.9.2,2.8.2l-9.3,19.9Z"/>
    <path d="M207.8,306.7l9.3-19.9c-.9,0-1.9.1-2.8-.2-8.2-2.4-14.2-3.4-20-10.4s-7.8-15.2-5.6-22.1,11.8-1.7,13.6-4.3,1.3-8.2,1.8-10.1c2.6-9.9,9.7-19.1,19.2-23.1,4.6-2,4.8-.8,8.8-1.1s.9-1.3,1.2-1.3c1.6,0,3.2.9,5.4.6s.9-1.2,1.4-1.4c1.4-.3,3.3.2,4.8,0-.6-13.4.7-27.4,0-40.7-.7-13.1-4.5-28.4-17.7-33.9-9.6-4-22.1-1.3-26.9,8.5-1.8,3.7-1.6,8.2-3.4,11.8-7.9,5.7-10.7-.5-9.5-8.2,2.4-15.6,19.7-27.7,36-24.8,12.3,2.2,18.5,10.6,25.6,19.6s.6,3.6,2,1.8,2.5-5.2,4.3-7.5c9.5-12.1,24.7-17.6,39.4-11.7s12.7,9.1,15.5,14.9c2.5,5.1,6.5,19.3-3.3,17.9-5.6-.8-4.7-7.6-6.2-11.7-5.7-15.8-25.9-16-36.2-4.2s-8.3,14.9-8.3,20.2v48c2.3,1.3,4.3,0,6.2,0,19.9,1.1,30.5,11.6,35.2,30.2.2.7-.4,1.6-.2,2.4.3,1.2,1.8,2.5,1.2,4.5.3.4,8.5-.4,10.1,0s.4,1,.6,1.1c.3.2,1-.5,1.1-.4,2,1.8,2.3,8.8,2,11.4-1.3,11.4-11.4,20.9-21.7,23.3s-5.4.9-8,1l9.3,19.9h83.4c.2-6.7-.7-13.5-3-19.8-3.5-9.9-13.9-19.2-24.5-20.5s-11.5.8-13.5-1.1-1.9-6.7-.4-7.6,1.9-.4,2.5-.7c6.2-2.9,15.7-1,22.3,1.7,1.1.5,6.9,4,7.3,3.6.2-1.9-.6-3.4-1.2-5.1-5-13.2-20-23.6-34.2-24.1s-19.7,5-17.4-5.5,2.9-2.4,4.7-3.2c12-4.8,24.9-1,34.6,5.2s4.9,1.9,6.6,4.1c.8-1.4-.3-3.7-.9-5.1-4.7-10.8-16.1-23.3-26.6-28.3s-9.7-3.2-14.5-4.7c-4-2.9-2.7-9.7,2.3-10.2s14.9,3.8,19,6c6,3.2,13.5,10.1,18.6,15.9.5.6,3.5,5.6,4.4,4.6,1.1-8.9,3.5-18.4,7.8-26.3,4-7.1,12.4-16.7,19.4-21s13.1-4.7,12.4,4.8l-14.5,9.7c-6.7,8-10.7,16.2-13.5,26.2s-2.7,9.5-2.3,13.9l6.6-6.3c6.1-9.2,19.8-16.4,30.9-18,4.9-.7,14.6-2.2,14.1,5.4-.4,6.3-6.8,4.4-10.9,5.1-20.5,3.2-41.4,22.1-36.8,44.3l5.3-7.6c7.7-8.5,18.2-14,30-12.8s8,1.1,8.3,5.6c.6,8.3-7.6,4.8-12.2,4.8s-7,.8-8.1,1.2-.8,1.2-1.3,1.5c-13.6,8.2-17.7,20.5-14.8,35.5s4,18.8,4,28.7h27.5c2.5,0,5.1,3.8,4.9,6.3s-3.2,5-4.9,5h-115.5l23.7,47.5c3.4,7.1-5.2,12.7-9.7,5.7l-41.8-83.9-38.8-.4-2.2,1.1-39.7,81.5c-3,7.9-12.7,5.9-11.2-2.6l23.7-48.8h-114.8c-1.9,0-5-3.6-5-5.6s2.8-5.6,5-5.6h27.5c.2-4.1.2-8.8.7-12.8,2-15,7.9-22.9,1.1-38.4s-6.9-10.2-10.6-12.8-.7.4-1,.2c-3-1.8-5.9-2.9-9.8-3.1s-11.8,2.6-13.3-1.9-.1-5.7,1.8-6.8,4.8-1.6,6.8-1.8c13-1.2,25,5.9,32.4,15.9,1,1.4,1.5,4.2,3.7,5.2v-11.6c0-.3-1.5-5.5-1.8-6.3-5.9-13.8-20.3-24.6-35.1-27-5.1-.8-14.1,1-11.1-8.2s3.7-1.7,6-1.9c4.4-.4,4.2-.9,8.9.3s2.8.3,4.4.6.7,1.7,1.4,1.9c1,.2,1.9-.6,2.6-.6s.2,1,.8,1.2c5.9,1.8,9.6,4.1,15.1,8l12.3,13.2c-.3-5-1.1-10.4-2.4-15.3-2.6-9.9-9.1-21.4-17.5-28-4-3.1-14.3-6-10.2-12.3s10.1-1.5,13.8,1.4c8.7,7,16.9,16.6,21,27.3,2.3,6.2,3.7,13,4.6,19.5,1.3-1.1,3.3-2.9,4.4-4.2,8.4-10,15.6-17.1,28.8-21.1.9-.3,7.5-1.8,8.1-1.8,4.9,0,7.9,7.2,3.3,10s-1.7-.1-1.9,0c-3.7,1.7-8.2,2.2-12,4.1-9.6,4.7-19.9,14.7-25.4,24.8s-4.1,8.4-3.4,9.4c2.3-.5,3.7-2.9,5.1-3.9,8.6-5.9,20-8.2,30.3-7.4s14.1,2.1,9.9,9.9-11.8.5-16.5.7c-16.4.8-32,13.3-36.1,29.1,4.1-1.2,7.6-3.8,11.8-5.1s23.1-4.6,21.9,4.6-9.3,3.9-14.7,4.5c-10,1.2-18.9,8.9-23.3,17.8-3.4,6.7-4.3,15.1-4.3,22.5h82.7ZM287.8,250.4c-.9-13.3-7.9-24.8-22.1-25.8-8.7-.6-32.4-1-39.6,2.1-9.5,4.1-12.7,14.1-13.7,23.7h75.4ZM301.7,260.4h-103.2c.1,3.1,2.1,7.3,4,9.6,3.6,4.4,10.7,6,16.2,6.3,18.5,1.2,42.8.7,61.6,0,5.7-.2,11.2-1,15.9-4.7s6.8-10.1,5.6-11.3Z"/>
    <path class="st1" d="M287.8,250.4h-75.4c.9-9.7,4.2-19.6,13.7-23.7,7.2-3.1,30.9-2.7,39.6-2.1,14.2,1,21.3,12.5,22.1,25.8Z"/>
  </g>
  <g id="bar" class="st2">
    <path d="M170.6,202.2c-1.7-1.4-2.9-3.9-4.1-5.3-1.8-2-4.9-4.4-6.7-6.6-4.2-5.2,2-10,6-6s1.1,2,1.8,2.8c1.3,1.5,3.3,2.7,4.8,4.3,3.3,3.5,6.5,7.9,10.3,10.8l69.3-.2c3.1-4,6.6-7.1,10.8-9.7s12.1-5.4,12.9-8.6v-21.8c-3.2-1.4-5.4-4.1-5.9-7.9s-.3-13.4.8-16.6,4.9-6.2,9-6.6c7-.6,23.4-.8,30.2,0s5.7,2.5,7.4,5.4c.3.4.9.5,1,.9.9,2.5.7,13.2.5,16.4-.3,3.9-1.9,6.5-5.5,8.3l.2,22.1c1.3,2.8,4.4,3.6,6.8,5,3.6,2.1,8,4.4,11.5,6.9,7.1,5.2,11.6,14.4,12.7,23.1v128.1c-.2,6-8.6,14.4-14.4,14.4h-58.3c0,1.1,1,1.5,1.3,2.6.7,3.1-1.1,5.4-4.3,5.6l-75.3-.2c-3.6-.8-3.7-6.2-.8-8.1s6.4-2.7,8.7-3.6c3.5-1.4,7.5-3.1,11-4.6,5.2-2.2,10.5-4.4,15.8-6.3v-52.8c-.8-1-1.7-2.9-2.4-3.7s-1.1-.5-1.5-1c-19.1-23.2-39.1-45.9-58.6-68.6-1.5-1.8-10.1-11.5-10.3-12.6-.3-1.9.7-5.7,3-5.7h12.1ZM310.6,139.5h-32v13.7h32v-13.7ZM304.7,161.5h-20.1v22.6c0,6.9-12.7,13-18,15.9l-2.6,2.2h43c0,0,.1.9.6,1.4s1.6.8,1.7,1.2c.6,2.6-.5,4-1.8,5.9-2.4,3.3-5.7,6.5-8.3,9.6-14.2,16.7-28.8,33.2-42.6,50.3s-2.5,2.1-3.1,3.8l.2,72.2c1.4,4.2,3.9,5.7,8.2,6.2,21.1-1.5,44.7,1.9,65.4,0,3.9-.4,7-2,8.4-5.8v-128.4c-.9-6.1-4.5-11.9-9.3-15.8s-11-5.9-16-9.6c-2-1.5-5.7-6-5.7-8.5v-23.1ZM183.9,228.8c3,3.5,6,7.1,9.1,10.5-.1-3.6,1.6-6.4,3.1-9.5.1-.9-.9-1.1-1.3-1.5-4.7-5.4-10.3-11.6-15.4-16.5-.5-.5-.6-1.4-.7-1.4h-10.5c1.2,1,1.6,2.7,2.5,3.7,4.2,5,8.7,9.6,13.1,14.6ZM227.4,228.8c9.3,9.5,10.9,24,.1,33s-9.4,2.9-13.8,2.5c3,1.9,17.2,21,18.6,21.2s.8-.3,1.1-.6c15.9-18.6,31.8-37.3,47.6-56.1,4.7-5.6,10.1-11.2,14.4-16.9s.9-.6.7-1.4h-106.6c1.2,2.7,3.9,4,5.7,5.9s5.3,6.5,6.6,7.1,4.6-1.4,5.8-1.5c6.8-.8,15.1,2,19.9,6.8ZM209.4,229.8c-4.5.5-8.2,4.9-8.6,9.3-1.3,13.9,21.8,24.9,25.9,10.8s-7.5-21-17.3-20ZM244.8,284.6c-.9,1.2-2.6,2.2-3.5,3.2s-.6,1.4-.9,1.8c-1.1,1.4-3.2,2.8-3.8,4.9v51.3c0,.5,0,1,.4,1.3s8,3.5,8.5,3.4l-.7-65.9ZM215,361.5h34.8l-17.6-7.3-17.2,7.3Z"/>
    <path class="st1" d="M280.9,228.8c-15.8,18.8-31.6,37.5-47.6,56.1-.3.3-.6.7-1.1.6-1.4-.2-15.6-19.3-18.6-21.2,4.4.4,10.2.5,13.8-2.5,10.8-8.9,9.2-23.5-.1-33h53.5Z"/>
    <path class="st1" d="M209.4,229.8c9.8-1,20,10.3,17.3,20-4,14.2-27.2,3.1-25.9-10.8s4.1-8.8,8.6-9.3Z"/>
    <path class="st1" d="M194.9,228.3c.4.4,1.4.6,1.3,1.5-1.6,3-3.3,5.9-3.1,9.5-3.2-3.4-6.1-7-9.1-10.5,3.6-.3,7.6.6,11-.5Z"/>
  </g>
  <g id="park">
    <path class="st0" d="M363.2,158.8c-2-1-2.1.7-2.2.8-.6.2-1-.4-1.8,0s-15.9,15.6-16.8,16.8c-3.5,5.3,2.4,11.9,8.8,7.7,2.3-1.5,12.8-12.2,14.6-14.6s2.5-3.8,1.9-6.7-2.5-3.5-2.7-3.6-.9.5-1.2.5-.3-.8-.5-.9ZM380.3,174.6c-3.2.7-13.4,13.6-16.8,16.2-2.4,5.6,1.8,10.9,7.8,8.4l15.7-15.7c2.3-5.1-.9-10.2-6.7-8.9Z"/>
    <path d="M327.6,218.2c.6-4.5,6-10.7,10.1-12.5s1.4.2,1.7,0c.4-.1.4-.9.8-1,2.8-.7,8-1,10.9-.6s.8,1,1.2,1.1c6.4,1.8,8,1.5,12.8,7.1,7.5,8.8,3.3,31.8,4.4,43.3.4,4.2,4.1,7.8,6.1,11.1,10.8,18.2,21.1,36.3,32.9,54.9,4.6,7.3,8,15.5,16.8,19,8.9,3.5,20,.5,19.9,14.5,0,7.8-7.2,14.6-14.8,15.1-10,.8-27,.3-36.5-2.6-23.1-7.1-34.4-34-45.2-52.5-6.9-11.8-14.2-23.7-20.8-35.5-1-1.8-1.5-4.1-3-5.6-.6,7.9.6,15.8,1.1,23.7l11.3,60.7.4.4c4.7.5,14.2-2.2,15.5,4.2s-.9,5.5-3.7,7l-287.9.3c-7.7-.2-8.7-10.6-.5-11.6,3.7-.4,8,.3,11.8,0,12.9-73.8,27-147.5,40.2-221.2,1.4-4.8,4.4-7.6,9.5-8.1h161.1c4.4.2,8,3.9,9.3,7.7l12.5,66.7c.7,1.4,3.4,1.8,5,2.6,3.8,2.1,10.3,9.4,10.3,14.6v13.5l7.1-.5c.5-4.9-.7-11,0-15.7ZM162.2,141h-36.8l30.2,141.3v-8.5c0-3,6.6-2.6,6.6-3v-129.7ZM232.5,141h-58.8v129.2h58.8v-129.2ZM280.9,141h-36.8v129.7c0,.3,4.9.8,4.9,3.6v14l31.9-147.3ZM158.9,358.7l-39.3-192.4-35.5,192.4h74.8ZM246.3,358.7h31.3c-.3-39.9.4-79.7,0-119.6,0-7.3-2.2-19.3,1-25.9s6.3-6.2,10.5-7.6c1.6-.6,3.7.3,4.5-2.1l-6.9-35.5-40.4,190.8ZM308.9,233.9v-10.7c0-.3-2.2-4.9-2.5-5.2s-4.2-2.1-5-2.2c-2.8-.4-12.9-.6-12.9,3.5v14.6h20.3ZM357.9,243.8v-20.1c0-.4-4.1-5.7-4.6-6.1-2.4-1.8-10.8-2.7-12.9-.6s-.8,14.9-1.2,18.6c1.3-.3,2-.6,3.4-.4,4.9.5,10,4.7,13.4,7.6s1.9,1.2,1.9,1.1ZM333.4,245.4c-3.7-.3-7.8,0-11.5,0s-1-1.4-.8.3c17.1,26.6,31.3,55,47.7,82,9.6,15.8,17.7,29.8,38.3,31,4.8.3,19.6.7,23.6-.1s3.6-3,3.1-5.4c-16.1,0-24.7-9.7-32.7-22s-20.3-34.2-30.9-51-17.2-33.3-36.8-34.7ZM312.2,269.6c-2.4-8-3.2-16.6-6.9-24.2h-16.8v24.2h23.6ZM313.3,281.2h-24.7v23.1h24.7v-23.1ZM166.9,281.8c-2.3.8-.3,7.2.8,8.9,1.8,2.8,4.7,3.8,7.9,4.2,16.9-1.4,36.7,1.9,53.3,0,3.5-.4,6.6-1.7,8.3-4.9s2.8-7.9,0-8.3h-70.3ZM234,305.7c-3.9,2.3-52.8-1.4-61.1.1-6.4-1.1-10.7-5.7-15.2-9.8l13.3,62.6h63.7s12.7-61.8,12.7-61.8l-7.5,6.8c-.9.8-2.2.4-3.1.6s-2.4,1.3-2.7,1.4ZM313.3,316.4h-24.7v22h24.7v-22ZM313.3,349.9h-24.7v8.8h24.7v-8.8ZM326.5,358.7l-1.6-7.1v7.1c.4,0,1.5.1,1.6,0Z"/>
    <path d="M363.2,158.8c.1,0,0,.9.5.9s1-.6,1.2-.5,2.6,3.1,2.7,3.6c.7,2.9-.2,4.5-1.9,6.7s-12.3,13-14.6,14.6c-6.4,4.3-12.3-2.4-8.8-7.7s15.7-16.2,16.8-16.8,1.2.1,1.8,0,.2-1.8,2.2-.8Z"/>
    <path d="M380.3,174.6c5.8-1.3,8.9,3.7,6.7,8.9l-15.7,15.7c-6,2.5-10.3-2.8-7.8-8.4,3.4-2.6,13.6-15.4,16.8-16.2Z"/>
    <path class="st1" d="M333.4,245.4c19.6,1.4,27.4,19.8,36.8,34.7s20.1,34.4,30.9,51,16.6,22,32.7,22c.5,2.4-.6,4.8-3.1,5.4-4,.9-18.8.4-23.6.1-20.6-1.2-28.6-15.2-38.3-31-16.5-27-30.6-55.4-47.7-82-.1-1.7.6-.3.8-.3,3.7,0,7.9-.3,11.5,0Z"/>
    <path class="st1" d="M166.9,281.8h70.3c2.8.3,1,6.3,0,8.2-1.7,3.2-4.8,4.5-8.3,4.9-16.5,1.9-36.4-1.3-53.3,0-3.1-.4-6.1-1.4-7.9-4.2s-3.1-8.2-.8-8.9Z"/>
    <path class="st0" d="M326.5,358.7c-.1.1-1.2,0-1.6,0v-7.1s1.6,7.1,1.6,7.1Z"/>
  </g>
</svg>