<?xml version="1.0" encoding="UTF-8"?>
<svg id="Layer_1" xmlns="http://www.w3.org/2000/svg" version="1.1" viewBox="0 0 50 50">
  <!-- Generator: Adobe Illustrator 29.6.1, SVG Export Plug-In . SVG Version: 2.1.1 Build 9)  -->
  <defs>
    <style>
      .st0 {
        fill: #d5b468;
      }
    </style>
  </defs>
  <path class="st0" d="M16,3c-7.2,0-13,5.8-13,13v18c0,7.2,5.8,13,13,13h18c7.2,0,13-5.8,13-13v-18c0-7.2-5.8-13-13-13h-18ZM37,11c1.1,0,2,.9,2,2s-.9,2-2,2-2-.9-2-2,.9-2,2-2ZM25,14c6.1,0,11,4.9,11,11s-4.9,11-11,11-11-4.9-11-11,4.9-11,11-11ZM25,16c-5,0-9,4-9,9s4,9,9,9,9-4,9-9-4-9-9-9Z"/>
</svg>